<?xml version="1.0" standalone="no"?>
<!DOCTYPE svg PUBLIC "-//W3C//DTD SVG 20010904//EN"
 "http://www.w3.org/TR/2001/REC-SVG-20010904/DTD/svg10.dtd">
<svg version="1.0" xmlns="http://www.w3.org/2000/svg"
 width="980.000000pt" height="982.000000pt" viewBox="0 0 980.000000 982.000000"
 preserveAspectRatio="xMidYMid meet">
<metadata>
Created by potrace 1.16, written by Peter Selinger 2001-2019
</metadata>
<g transform="translate(0.000000,982.000000) scale(0.100000,-0.100000)"
fill="#000000" stroke="none">
<path d="M2720 9799 c-273 -23 -562 -95 -835 -206 -251 -102 -560 -281 -750
-434 -107 -86 -339 -318 -459 -459 -341 -400 -571 -934 -653 -1515 -27 -196
-24 -588 6 -785 40 -258 94 -466 178 -680 390 -993 1252 -1699 2283 -1869 215
-36 350 -44 595 -38 488 13 863 104 1265 308 174 89 280 154 470 294 72 52
134 95 138 95 11 0 1322 -1314 1322 -1324 0 -5 -52 -62 -115 -127 -64 -65
-122 -133 -130 -152 -29 -69 16 -154 186 -347 115 -132 1855 -1871 2243 -2243
160 -152 305 -284 324 -293 48 -22 112 -14 164 22 116 81 647 613 790 792 49
62 58 80 58 113 0 93 -1 94 -891 996 -726 736 -1557 1556 -1702 1681 -162 139
-235 177 -294 155 -13 -5 -68 -51 -124 -102 l-101 -94 -290 289 c-432 431
-1028 1044 -1028 1057 0 7 21 41 46 77 125 179 211 317 268 430 214 421 318
872 318 1370 0 489 -92 896 -297 1315 -396 810 -1132 1395 -2020 1605 -300 71
-650 96 -965 69z m586 -660 c376 -36 766 -196 1114 -455 114 -84 289 -250 389
-368 206 -242 389 -589 474 -896 46 -166 59 -269 64 -532 8 -367 -13 -536 -97
-788 -81 -244 -200 -484 -327 -661 -97 -136 -355 -399 -516 -527 -193 -153
-548 -320 -833 -393 -309 -78 -816 -80 -1130 -4 -455 109 -926 405 -1240 779
-268 319 -456 718 -520 1101 -24 139 -27 663 -6 785 135 763 606 1398 1288
1738 236 118 486 195 714 221 110 12 500 13 626 0z"/>
<path d="M1661 8379 c-44 -27 -170 -154 -264 -267 -228 -274 -381 -616 -444
-988 -25 -151 -25 -476 0 -625 76 -455 273 -838 596 -1159 211 -211 398 -339
497 -343 51 -2 72 14 80 65 5 30 1 41 -27 73 -19 21 -59 54 -89 73 -107 68
-216 161 -345 293 -204 209 -288 334 -394 581 -115 267 -123 317 -123 728 0
361 5 398 68 583 64 185 170 385 278 525 24 31 92 111 151 177 170 189 187
224 137 275 -36 36 -73 39 -121 9z"/>
</g>
</svg>
